<svg width="52" height="50" viewBox="0 0 52 50" fill="none" xmlns="http://www.w3.org/2000/svg">
<path d="M49.2803 1.00001C31.1011 1.5926 -2.94798 3.69219 1.37571 13.4445C6.78033 25.635 51 18.7779 51 31.2223C51 41.1778 18.0809 47.984 3.09537 48.9999C18.0809 47.984 47.0694 41.1778 47.0694 31.2223C47.0694 18.7779 10.8266 25.635 5.42196 13.4445C1.09827 3.69219 31.1011 1.5926 49.2803 1.00001ZM49.2803 1.00001C31.1011 1.5926 12.5975 5.36224 13.7746 13.4445C14.9516 21.5268 36.7327 21.7344 39.3237 31.2223C41.9401 40.8033 16.3613 47.9841 1.37572 49M49.2803 1.00001C31.1011 1.5926 7.96642 3.42643 10.3353 13.4445C13.0376 24.8729 42.1946 19.5396 43.7456 31.2223C45.0551 41.0853 16.3613 47.9841 1.37572 49M49.2803 1.00001C31.1011 1.5926 16.7531 6.91538 17.4595 13.4445C18.166 19.9737 33.1659 22.4132 34.4104 31.2223C35.8021 41.0733 16.3613 47.9841 1.37572 49" stroke="url(#paint0_linear_209_1926)" stroke-width="2"/>
<defs>
<linearGradient id="paint0_linear_209_1926" x1="26" y1="1" x2="26.0011" y2="47" gradientUnits="userSpaceOnUse">
<stop stop-color="#9747FF"/>
<stop offset="1" stop-color="#FF004D"/>
</linearGradient>
</defs>
</svg>
