<svg width="63" height="50" viewBox="0 0 63 50" fill="none" xmlns="http://www.w3.org/2000/svg">
<path d="M11.4905 19.3217V14.8206V14.8206C11.4905 9.39683 15.8873 5 21.3111 5H40.1779C46.4361 5 51.5093 10.0733 51.5093 16.3314V16.3314" stroke="#FFFBFB" stroke-width="10"/>
<path d="M52.9244 26.5325C52.1253 27.6226 50.4973 27.6226 49.6982 26.5325L43.5213 18.1053C42.5529 16.7842 43.4963 14.923 45.1343 14.923L57.4883 14.923C59.1263 14.923 60.0697 16.7842 59.1014 18.1053L52.9244 26.5325Z" fill="white"/>
<path d="M51.5095 29.9607V34.4618V34.4618C51.5095 39.8855 47.1127 44.2823 41.6889 44.2823H22.8221C16.5639 44.2823 11.4907 39.2091 11.4907 32.9509V32.9509" stroke="#FFFBFB" stroke-width="10"/>
<path d="M10.0756 22.7499C10.8747 21.6597 12.5027 21.6597 13.3018 22.7499L19.4787 31.177C20.4471 32.4981 19.5037 34.3594 17.8657 34.3594L5.5117 34.3594C3.8737 34.3594 2.93026 32.4981 3.89862 31.177L10.0756 22.7499Z" fill="white"/>
</svg>
