<?xml version="1.0" encoding="iso-8859-1"?>
<!-- Generator: Adobe Illustrator 19.0.0, SVG Export Plug-In . SVG Version: 6.00 Build 0)  -->
<svg version="1.1" id="Layer_1" xmlns="http://www.w3.org/2000/svg" xmlns:xlink="http://www.w3.org/1999/xlink" x="0px" y="0px"
	 viewBox="0 0 512.356 512.356" style="enable-background:new 0 0 512.356 512.356;" xml:space="preserve">
<g>
	<g>
		<g>
			<path d="M10.996,154.645h120.427c55.147,0,82.453,67.2,82.667,67.947c2.24,5.44,8.427,8.107,13.867,5.867
				c5.333-2.24,8-8.213,5.973-13.653c-1.28-3.307-32.747-81.387-102.507-81.387H10.676c-6.4-0.107-11.52,5.547-10.56,12.16
				C0.863,150.911,5.663,154.645,10.996,154.645z"/>
			<path d="M385.183,154.645h90.453l-35.093,35.093c-4.8,4.693-4.267,12.693,1.6,16.64c3.733,2.453,8.64,2.24,12.16-0.427
				c0.427-0.32,0.853-0.747,1.28-1.173l53.333-53.333c4.16-4.16,4.16-10.88,0-15.04l-53.333-53.333
				c-4.267-4.053-10.987-3.947-15.04,0.213c-3.947,4.16-3.947,10.667,0,14.827l35.093,35.093h-90.453
				c-58.56,0-97.813,59.413-135.68,116.8c-36.48,55.253-70.827,107.307-117.973,107.307H10.996c-5.333,0-10.133,3.84-10.88,9.067
				c-0.96,6.613,4.16,12.267,10.56,12.267H131.53c58.56,0,97.813-59.413,135.68-116.8
				C303.69,206.698,338.036,154.645,385.183,154.645z"/>
			<path d="M509.236,360.405l-53.547-53.44c-4.267-4.053-10.987-3.947-15.147,0.213c-4.053,4.16-4.053,10.667,0,14.827l35.2,35.2
				h-91.733c-57.493,0-97.6-58.773-98.027-59.413c-3.52-4.693-10.24-5.76-14.933-2.24c-4.373,3.307-5.653,9.28-2.773,13.973
				c1.813,2.987,46.613,69.12,115.733,69.12h91.84l-35.2,35.2c-4.267,4.053-4.373,10.88-0.213,15.147
				c4.053,4.267,10.88,4.373,15.147,0.213c0.107-0.107,0.213-0.213,0.213-0.213l53.44-53.44
				C513.396,371.391,513.396,364.565,509.236,360.405z"/>
		</g>
	</g>
</g>
<g>
</g>
<g>
</g>
<g>
</g>
<g>
</g>
<g>
</g>
<g>
</g>
<g>
</g>
<g>
</g>
<g>
</g>
<g>
</g>
<g>
</g>
<g>
</g>
<g>
</g>
<g>
</g>
<g>
</g>
</svg>
