<svg xmlns="http://www.w3.org/2000/svg" fill="none" viewBox="174 274.26 1007.63 982.02">
<path d="M668.5 609.5C457.278 896.775 262.936 1122.14 397.81 1118.41C566.403 1113.74 1033.85 379.607 1140.32 460.858C1225.49 525.859 1009.75 1129.28 1094.99 1255.28M668.5 609.5C457.278 896.775 445.657 977.228 545.328 925.114C645 873 889.398 621.332 1001.39 642.887C1114.49 664.653 982.783 1144.3 1094.99 1255.28M668.5 609.5C457.278 896.775 391.354 1010.36 504.408 978.731C578.5 958 935.607 521.854 1054.01 573.95C1153.97 617.933 1076.53 1096.55 1094.99 1255.28M668.5 609.5C457.278 896.775 312.451 1074.89 445.951 1055.33C612 1031 987.089 440.884 1093.55 522.135C1178.72 587.136 1008.3 1127.14 1094.99 1255.28M668.5 609.5C457.278 896.775 520.5 909 594.5 873C668.5 837 852.769 681.368 942.938 719.483C1043.77 762.106 990.516 1100.86 1094.99 1255.28" stroke="url(#paint0_linear_236_213)" stroke-width="2"/>
<path d="M936.5 589C780.128 776.391 583.571 1054.14 532.425 939.904C468.493 797.108 897.213 379.429 786.098 291.796C697.205 221.689 295.177 401.546 155 333.215M936.5 589C780.128 776.391 697.852 878.569 635.467 809.251C573.083 739.932 752.244 508.952 689.06 414.836C625.256 319.795 293.411 424.814 155 333.215M936.5 589C780.128 776.391 676.649 941.002 606.884 845.493C527.299 736.538 817.233 466.852 725.809 368.239C648.625 284.985 295.803 344.051 155 333.215M936.5 589C780.128 776.391 617.198 1011.5 566.052 897.267C502.12 754.47 864.547 420.848 753.432 333.215C664.539 263.108 297.561 402.708 155 333.215M936.5 589C780.128 776.391 718.519 823.843 666.092 770.42C613.664 716.998 716.541 541.756 648.228 466.609C571.834 382.574 326.797 416.96 155 333.215" stroke="url(#paint1_linear_236_213)" stroke-width="2"/>
<defs>
<linearGradient id="paint0_linear_236_213" x1="584.32" y1="653.273" x2="977.857" y2="953.607" gradientUnits="userSpaceOnUse">
<stop stop-color="#9747FF"/>
<stop offset="1" stop-color="#FF004D"/>
</linearGradient>
<linearGradient id="paint1_linear_236_213" x1="848.185" y1="768.058" x2="437.46" y2="444.12" gradientUnits="userSpaceOnUse">
<stop stop-color="#9747FF"/>
<stop offset="1" stop-color="#FF004D"/>
</linearGradient>
</defs>
</svg>